<?xml version="1.0" encoding="UTF-8" standalone="no"?>
<!DOCTYPE svg PUBLIC "-//W3C//DTD SVG 1.1//EN" "http://www.w3.org/Graphics/SVG/1.1/DTD/svg11.dtd">
<svg width="100%" height="100%" viewBox="0 0 419 144" version="1.1" xmlns="http://www.w3.org/2000/svg" xmlns:xlink="http://www.w3.org/1999/xlink" xml:space="preserve" xmlns:serif="http://www.serif.com/" style="fill-rule:evenodd;clip-rule:evenodd;stroke-linejoin:round;stroke-miterlimit:2;">
    <g transform="matrix(1,0,0,1,-698.961,-227.535)">
        <g transform="matrix(1.33333,0,0,1.33333,0,0)">
            <path d="M552.701,240.577L552.701,202.077L547.916,202.077L547.916,218.357L529.766,218.357L529.766,202.077L524.981,202.077L524.981,240.577L529.766,240.577L529.766,222.867L547.916,222.867L547.916,240.577L552.701,240.577Z" style="fill:white;fill-rule:nonzero;"/>
        </g>
        <g transform="matrix(1.33333,0,0,1.33333,0,0)">
            <path d="M569.75,204.387C569.75,203.562 569.475,202.792 568.87,202.187C568.265,201.582 567.55,201.307 566.725,201.307C565.9,201.307 565.24,201.582 564.635,202.187C564.03,202.792 563.755,203.562 563.755,204.387C563.755,205.212 564.03,205.872 564.635,206.477C565.185,207.082 565.9,207.357 566.725,207.357C567.55,207.357 568.265,207.082 568.87,206.477C569.475,205.927 569.75,205.212 569.75,204.387ZM569.145,240.577L569.145,212.472L564.36,212.472L564.36,240.577L569.145,240.577Z" style="fill:white;fill-rule:nonzero;"/>
        </g>
        <g transform="matrix(1.33333,0,0,1.33333,0,0)">
            <path d="M598.405,248.717C600.66,246.792 601.815,243.712 601.815,239.422L601.815,212.472L597.03,212.472L597.03,214.782C595.215,212.802 592.85,211.812 589.935,211.812C586.47,211.812 583.665,213.132 581.52,215.717C579.375,218.357 578.275,221.932 578.275,226.497C578.275,231.172 579.375,234.802 581.575,237.387C583.72,239.972 586.47,241.237 589.77,241.237C592.96,241.237 595.38,240.082 597.03,237.827L597.03,241.237C597.03,243.272 596.26,244.922 594.72,246.077C593.125,247.287 590.32,248.002 586.25,248.222L588.56,251.962C592.795,251.687 596.095,250.642 598.405,248.717ZM585.26,234.032C583.83,232.217 583.115,229.687 583.115,226.497C583.115,223.197 583.775,220.667 585.095,218.852C586.36,217.092 588.285,216.212 590.76,216.212C591.86,216.212 593.015,216.542 594.225,217.257C595.435,217.972 596.37,218.852 597.03,219.952L597.03,232.822C596.315,234.032 595.435,234.967 594.28,235.682C593.125,236.397 591.915,236.782 590.76,236.782C588.505,236.782 586.635,235.847 585.26,234.032Z" style="fill:white;fill-rule:nonzero;"/>
        </g>
        <g transform="matrix(1.33333,0,0,1.33333,0,0)">
            <path d="M617.325,240.577L617.325,223.472C617.325,218.632 619.47,216.212 623.815,216.212C625.685,216.212 627.17,216.817 628.27,217.972C629.315,219.182 629.865,221.052 629.865,223.582L629.865,240.577L634.65,240.577L634.65,224.407C634.65,220.007 633.825,216.817 632.12,214.782C630.415,212.802 627.885,211.812 624.585,211.812C621.45,211.812 619.03,213.022 617.325,215.387L617.325,200.867L612.54,203.067L612.54,240.577L617.325,240.577Z" style="fill:white;fill-rule:nonzero;"/>
        </g>
        <g transform="matrix(1.33333,0,0,1.33333,0,0)">
            <path d="M653.624,240.577L658.684,223.912C658.959,222.977 659.289,221.767 659.674,220.227C659.839,221.052 660.224,222.262 660.719,223.912L665.834,240.577L670.124,240.577L677.329,212.472L672.599,212.472L668.364,231.337C668.309,231.667 668.199,232.162 668.089,232.877C667.924,233.592 667.814,234.087 667.759,234.417L666.989,231.337L661.709,212.472L657.749,212.472L652.469,231.337C652.084,232.822 651.809,233.812 651.754,234.307C651.699,233.922 651.589,233.427 651.424,232.712C651.259,231.997 651.204,231.557 651.149,231.337L646.859,212.472L642.129,212.472L649.334,240.577L653.624,240.577Z" style="fill:white;fill-rule:nonzero;"/>
        </g>
        <g transform="matrix(1.33333,0,0,1.33333,0,0)">
            <path d="M705.655,240.577L705.655,221.932C705.655,215.167 702.3,211.812 695.645,211.812C691.85,211.812 688.495,212.802 685.47,214.782L686.845,218.797C689.485,216.927 692.235,215.992 695.04,215.992C697.02,215.992 698.56,216.432 699.605,217.367C700.65,218.302 701.145,219.952 701.145,222.317L701.145,224.297C699,223.087 696.58,222.482 693.885,222.482C690.915,222.482 688.44,223.252 686.405,224.847C684.37,226.442 683.38,228.752 683.38,231.777C683.38,234.802 684.26,237.167 686.075,238.762C687.835,240.412 690.2,241.237 693.17,241.237C696.195,241.237 698.835,240.137 701.145,237.992L701.145,240.577L705.655,240.577ZM689.485,235.572C688.44,234.637 687.89,233.372 687.89,231.777C687.89,230.072 688.495,228.807 689.76,227.927C691.025,227.047 692.62,226.607 694.545,226.607C696.91,226.607 699.11,227.212 701.145,228.477L701.145,233.317C699.055,235.792 696.635,237.002 693.885,237.002C691.96,237.002 690.53,236.507 689.485,235.572Z" style="fill:white;fill-rule:nonzero;"/>
        </g>
        <g transform="matrix(1.33333,0,0,1.33333,0,0)">
            <path d="M722.979,251.247L737.554,212.472L732.659,212.472L725.564,231.612C725.289,232.217 725.014,233.152 724.684,234.307C724.354,233.152 724.079,232.217 723.804,231.612L716.819,212.472L712.034,212.472L722.429,239.862L718.139,251.247L722.979,251.247Z" style="fill:white;fill-rule:nonzero;"/>
        </g>
        <g transform="matrix(1.33333,0,0,1.33333,0,0)">
            <path d="M772.808,170.651C779.859,170.651 786.237,173.501 790.853,178.116C795.466,182.73 798.315,189.106 798.315,196.106C798.315,203.157 795.466,209.533 790.853,214.147C788.934,216.013 786.754,217.621 784.369,218.865L791.163,207.096L785.2,203.675C786.547,201.446 787.326,198.906 787.326,196.106C787.326,192.113 785.719,188.485 783.076,185.893C780.481,183.248 776.854,181.642 772.808,181.642C768.816,181.642 765.188,183.248 762.596,185.893C759.953,188.485 758.346,192.113 758.346,196.106C758.346,200.15 759.953,203.779 762.596,206.37C765.188,209.016 768.816,210.623 772.808,210.623C774.209,210.623 775.506,210.414 776.802,210.102L770.217,221.457C764.203,220.836 758.864,218.19 754.819,214.147C750.203,209.533 747.354,203.157 747.354,196.106C747.354,189.106 750.203,182.73 754.819,178.116C759.433,173.501 765.811,170.651 772.808,170.651Z" style="fill:white;fill-rule:nonzero;"/>
        </g>
        <g transform="matrix(1.33333,0,0,1.33333,0,0)">
            <path d="M795.725,207.304L776.025,241.468L763.372,241.468L786.289,201.808L795.725,207.304Z" style="fill:white;fill-rule:nonzero;"/>
        </g>
        <g transform="matrix(1.33333,0,0,1.33333,0,0)">
            <path d="M812.73,170.651C819.779,170.651 826.157,173.501 830.771,178.116C835.386,182.73 838.237,189.106 838.237,196.106C838.237,203.157 835.386,209.533 830.771,214.147C828.852,216.013 826.676,217.621 824.292,218.865L831.08,207.096L825.12,203.675C826.467,201.446 827.243,198.906 827.243,196.106C827.243,192.113 825.637,188.485 822.994,185.893C820.35,183.248 816.773,181.642 812.73,181.642C808.738,181.642 805.108,183.248 802.516,185.893C799.871,188.485 798.264,192.113 798.264,196.106C798.264,200.15 799.871,203.779 802.516,206.37C805.108,209.016 808.738,210.623 812.73,210.623C814.129,210.623 815.424,210.414 816.722,210.102L810.137,221.457C804.123,220.836 798.784,218.19 794.739,214.147C790.126,209.533 787.274,203.157 787.274,196.106C787.274,189.106 790.126,182.73 794.739,178.116C799.354,173.501 805.73,170.651 812.73,170.651Z" style="fill:white;fill-rule:nonzero;"/>
        </g>
        <g transform="matrix(1.33333,0,0,1.33333,0,0)">
            <path d="M835.645,207.304L815.891,241.468L803.295,241.468L826.209,201.808L835.645,207.304Z" style="fill:white;fill-rule:nonzero;"/>
        </g>
        <g transform="matrix(1.33333,0,0,1.33333,0,0)">
            <path d="M535.855,266.475L535.855,263.409L524.221,263.409L524.221,266.475L528.442,266.475L528.442,278.109L531.634,278.109L531.634,266.475L535.855,266.475Z" style="fill:white;fill-rule:nonzero;"/>
        </g>
        <g transform="matrix(1.33333,0,0,1.33333,0,0)">
            <path d="M549.253,278.109L549.253,275.064L541.462,275.064L541.462,272.04L545.578,272.04L545.578,269.016L541.462,269.016L541.462,266.433L548.833,266.433L548.833,263.409L538.27,263.409L538.27,278.109L549.253,278.109Z" style="fill:white;fill-rule:nonzero;"/>
        </g>
        <g transform="matrix(1.33333,0,0,1.33333,0,0)">
            <path d="M562.65,274.455L559.731,273.363C558.975,274.623 558.135,275.253 557.232,275.253C556.602,275.253 556.056,275.022 555.615,274.539C555.153,274.077 554.838,273.51 554.649,272.859C554.46,272.208 554.355,271.494 554.355,270.759C554.355,270.213 554.397,269.688 554.502,269.184C554.607,268.701 554.754,268.218 554.964,267.756C555.174,267.315 555.468,266.937 555.867,266.664C556.266,266.391 556.707,266.265 557.232,266.265C557.778,266.265 558.24,266.412 558.618,266.685C558.975,266.958 559.374,267.399 559.773,268.008L562.629,266.727C562.23,265.74 561.579,264.921 560.634,264.228C559.689,263.535 558.555,263.199 557.232,263.199C556.14,263.199 555.174,263.43 554.355,263.892C553.515,264.375 552.864,264.984 552.402,265.74C551.94,266.517 551.604,267.315 551.373,268.155C551.142,269.016 551.037,269.877 551.037,270.759C551.037,271.725 551.142,272.628 551.373,273.489C551.583,274.35 551.919,275.148 552.381,275.883C552.843,276.618 553.494,277.206 554.334,277.647C555.153,278.088 556.119,278.319 557.232,278.319C559.647,278.319 561.453,277.038 562.65,274.455Z" style="fill:white;fill-rule:nonzero;"/>
        </g>
        <g transform="matrix(1.33333,0,0,1.33333,0,0)">
            <path d="M577.371,278.109L577.371,263.409L574.158,263.409L574.158,269.037L568.32,269.037L568.32,263.409L565.128,263.409L565.128,278.109L568.32,278.109L568.32,272.082L574.158,272.082L574.158,278.109L577.371,278.109Z" style="fill:white;fill-rule:nonzero;"/>
        </g>
        <g transform="matrix(1.33333,0,0,1.33333,0,0)">
            <path d="M592.785,263.409L589.593,263.409L589.593,271.095C589.593,271.536 589.614,271.914 589.656,272.208C589.509,271.851 589.32,271.494 589.047,271.116L583.65,263.409L580.731,263.409L580.731,278.109L583.881,278.109L583.881,270.318C583.881,269.814 583.86,269.436 583.818,269.205C584.091,269.772 584.301,270.129 584.448,270.318L589.992,278.109L592.785,278.109L592.785,263.409Z" style="fill:white;fill-rule:nonzero;"/>
        </g>
        <g transform="matrix(1.33333,0,0,1.33333,0,0)">
            <path d="M605.154,277.689C606.015,277.248 606.708,276.66 607.191,275.904C607.674,275.169 608.052,274.35 608.304,273.489C608.535,272.628 608.661,271.704 608.661,270.759C608.661,269.814 608.535,268.89 608.304,268.029C608.052,267.168 607.674,266.349 607.191,265.593C606.708,264.858 606.015,264.249 605.154,263.808C604.293,263.367 603.285,263.157 602.151,263.157C601.227,263.157 600.387,263.304 599.652,263.598C598.896,263.892 598.266,264.291 597.783,264.774C597.3,265.278 596.88,265.866 596.565,266.517C596.229,267.168 595.998,267.861 595.851,268.554C595.704,269.268 595.62,270.003 595.62,270.759C595.62,271.515 595.704,272.25 595.851,272.943C595.998,273.657 596.229,274.35 596.565,275.001C596.88,275.652 597.3,276.24 597.783,276.723C598.266,277.227 598.896,277.626 599.652,277.92C600.387,278.214 601.227,278.361 602.151,278.361C603.285,278.361 604.293,278.13 605.154,277.689ZM600.639,274.854C600.198,274.581 599.862,274.224 599.631,273.762C599.4,273.321 599.211,272.838 599.106,272.334C599.001,271.83 598.938,271.305 598.938,270.759C598.938,270.024 599.022,269.331 599.211,268.68C599.4,268.029 599.736,267.462 600.261,266.958C600.765,266.475 601.395,266.223 602.151,266.223C602.907,266.223 603.537,266.454 604.041,266.937C604.545,267.42 604.881,267.987 605.07,268.638C605.259,269.289 605.343,270.003 605.343,270.759C605.343,271.473 605.238,272.145 605.049,272.796C604.86,273.447 604.503,274.035 603.999,274.518C603.495,275.022 602.886,275.274 602.151,275.274C601.584,275.274 601.08,275.127 600.639,274.854Z" style="fill:white;fill-rule:nonzero;"/>
        </g>
        <g transform="matrix(1.33333,0,0,1.33333,0,0)">
            <path d="M621.744,278.109L621.744,275.022L614.688,275.022L614.688,263.409L611.496,263.409L611.496,278.109L621.744,278.109Z" style="fill:white;fill-rule:nonzero;"/>
        </g>
        <g transform="matrix(1.33333,0,0,1.33333,0,0)">
            <path d="M632.391,277.689C633.252,277.248 633.945,276.66 634.428,275.904C634.911,275.169 635.289,274.35 635.541,273.489C635.772,272.628 635.898,271.704 635.898,270.759C635.898,269.814 635.772,268.89 635.541,268.029C635.289,267.168 634.911,266.349 634.428,265.593C633.945,264.858 633.252,264.249 632.391,263.808C631.53,263.367 630.522,263.157 629.388,263.157C628.464,263.157 627.624,263.304 626.889,263.598C626.133,263.892 625.503,264.291 625.02,264.774C624.537,265.278 624.117,265.866 623.802,266.517C623.466,267.168 623.235,267.861 623.088,268.554C622.941,269.268 622.857,270.003 622.857,270.759C622.857,271.515 622.941,272.25 623.088,272.943C623.235,273.657 623.466,274.35 623.802,275.001C624.117,275.652 624.537,276.24 625.02,276.723C625.503,277.227 626.133,277.626 626.889,277.92C627.624,278.214 628.464,278.361 629.388,278.361C630.522,278.361 631.53,278.13 632.391,277.689ZM627.876,274.854C627.435,274.581 627.099,274.224 626.868,273.762C626.637,273.321 626.448,272.838 626.343,272.334C626.238,271.83 626.175,271.305 626.175,270.759C626.175,270.024 626.259,269.331 626.448,268.68C626.637,268.029 626.973,267.462 627.498,266.958C628.002,266.475 628.632,266.223 629.388,266.223C630.144,266.223 630.774,266.454 631.278,266.937C631.782,267.42 632.118,267.987 632.307,268.638C632.496,269.289 632.58,270.003 632.58,270.759C632.58,271.473 632.475,272.145 632.286,272.796C632.097,273.447 631.74,274.035 631.236,274.518C630.732,275.022 630.123,275.274 629.388,275.274C628.821,275.274 628.317,275.127 627.876,274.854Z" style="fill:white;fill-rule:nonzero;"/>
        </g>
        <g transform="matrix(1.33333,0,0,1.33333,0,0)">
            <path d="M648.686,276.807C649.715,275.778 650.219,274.329 650.219,272.502L650.219,270.192L644.549,270.192L644.549,273.237L646.943,273.237L646.943,273.342C646.943,273.867 646.712,274.308 646.271,274.707C645.83,275.106 645.305,275.295 644.696,275.295C643.625,275.295 642.848,274.854 642.323,273.972C641.798,273.111 641.525,272.04 641.525,270.759C641.525,270.024 641.609,269.331 641.798,268.68C641.966,268.029 642.302,267.462 642.806,266.958C643.31,266.475 643.94,266.223 644.696,266.223C645.662,266.223 646.544,266.853 647.321,268.092L650.114,266.517C649.463,265.488 648.728,264.669 647.909,264.06C647.069,263.451 645.998,263.157 644.696,263.157C643.625,263.157 642.68,263.388 641.819,263.829C640.958,264.291 640.286,264.9 639.782,265.635C639.257,266.37 638.879,267.189 638.606,268.05C638.333,268.932 638.207,269.835 638.207,270.759C638.207,271.746 638.333,272.691 638.606,273.573C638.858,274.455 639.236,275.253 639.74,275.988C640.244,276.723 640.916,277.29 641.777,277.71C642.638,278.151 643.604,278.361 644.696,278.361C646.313,278.361 647.657,277.836 648.686,276.807Z" style="fill:white;fill-rule:nonzero;"/>
        </g>
        <g transform="matrix(1.33333,0,0,1.33333,0,0)">
            <path d="M659.67,278.109L659.67,272.397L665.256,263.409L661.644,263.409L658.095,268.995L654.525,263.409L650.913,263.409L656.499,272.397L656.499,278.109L659.67,278.109Z" style="fill:white;fill-rule:nonzero;"/>
        </g>
        <g transform="matrix(1.33333,0,0,1.33333,0,0)">
            <path d="M681.11,277.143C682.139,276.324 682.664,275.232 682.664,273.846C682.664,273.321 682.601,272.859 682.475,272.418C682.328,271.977 682.118,271.599 681.824,271.284C681.53,270.969 681.257,270.675 680.984,270.444C680.711,270.213 680.333,270.003 679.85,269.793C679.367,269.604 679.01,269.457 678.737,269.352C678.464,269.247 678.065,269.121 677.561,268.953C677.078,268.785 676.763,268.659 676.574,268.596C676.385,268.533 676.133,268.428 675.839,268.281C675.545,268.134 675.335,268.008 675.23,267.861C675.125,267.714 675.062,267.567 675.062,267.378C675.062,266.58 675.65,266.181 676.847,266.181C678.002,266.181 678.8,266.706 679.262,267.756L682.118,266.832C681.824,265.761 681.236,264.879 680.333,264.186C679.43,263.493 678.338,263.157 677.015,263.157C675.44,263.157 674.18,263.556 673.256,264.354C672.332,265.152 671.87,266.139 671.87,267.315C671.87,267.735 671.933,268.134 672.038,268.491C672.143,268.869 672.29,269.184 672.437,269.436C672.584,269.709 672.794,269.961 673.088,270.192C673.382,270.423 673.634,270.612 673.844,270.759C674.054,270.906 674.369,271.053 674.768,271.221C675.167,271.389 675.482,271.515 675.713,271.578C675.923,271.662 676.238,271.767 676.679,271.914C677.33,272.124 677.834,272.292 678.149,272.397C678.464,272.523 678.758,272.712 679.052,272.964C679.325,273.216 679.472,273.51 679.472,273.825C679.472,274.308 679.283,274.686 678.884,274.938C678.485,275.211 677.96,275.337 677.267,275.337C676.616,275.337 676.007,275.127 675.461,274.686C674.915,274.266 674.474,273.699 674.138,272.985L671.282,274.056C671.723,275.4 672.479,276.45 673.508,277.206C674.537,277.983 675.755,278.361 677.183,278.361C678.758,278.361 680.081,277.962 681.11,277.143Z" style="fill:white;fill-rule:nonzero;"/>
        </g>
        <g transform="matrix(1.33333,0,0,1.33333,0,0)">
            <path d="M694.403,277.689C695.264,277.248 695.957,276.66 696.44,275.904C696.923,275.169 697.301,274.35 697.553,273.489C697.784,272.628 697.91,271.704 697.91,270.759C697.91,269.814 697.784,268.89 697.553,268.029C697.301,267.168 696.923,266.349 696.44,265.593C695.957,264.858 695.264,264.249 694.403,263.808C693.542,263.367 692.534,263.157 691.4,263.157C690.476,263.157 689.636,263.304 688.901,263.598C688.145,263.892 687.515,264.291 687.032,264.774C686.549,265.278 686.129,265.866 685.814,266.517C685.478,267.168 685.247,267.861 685.1,268.554C684.953,269.268 684.869,270.003 684.869,270.759C684.869,271.515 684.953,272.25 685.1,272.943C685.247,273.657 685.478,274.35 685.814,275.001C686.129,275.652 686.549,276.24 687.032,276.723C687.515,277.227 688.145,277.626 688.901,277.92C689.636,278.214 690.476,278.361 691.4,278.361C692.534,278.361 693.542,278.13 694.403,277.689ZM689.888,274.854C689.447,274.581 689.111,274.224 688.88,273.762C688.649,273.321 688.46,272.838 688.355,272.334C688.25,271.83 688.187,271.305 688.187,270.759C688.187,270.024 688.271,269.331 688.46,268.68C688.649,268.029 688.985,267.462 689.51,266.958C690.014,266.475 690.644,266.223 691.4,266.223C692.156,266.223 692.786,266.454 693.29,266.937C693.794,267.42 694.13,267.987 694.319,268.638C694.508,269.289 694.592,270.003 694.592,270.759C694.592,271.473 694.487,272.145 694.298,272.796C694.109,273.447 693.752,274.035 693.248,274.518C692.744,275.022 692.135,275.274 691.4,275.274C690.833,275.274 690.329,275.127 689.888,274.854Z" style="fill:white;fill-rule:nonzero;"/>
        </g>
        <g transform="matrix(1.33333,0,0,1.33333,0,0)">
            <path d="M710.992,278.109L710.992,275.022L703.936,275.022L703.936,263.409L700.744,263.409L700.744,278.109L710.992,278.109Z" style="fill:white;fill-rule:nonzero;"/>
        </g>
        <g transform="matrix(1.33333,0,0,1.33333,0,0)">
            <path d="M721.22,278.046C721.913,277.836 722.564,277.5 723.173,277.059C723.761,276.618 724.223,275.988 724.58,275.19C724.937,274.413 725.105,273.489 725.105,272.439L725.105,263.409L721.913,263.409L721.913,272.439C721.913,273.468 721.682,274.203 721.199,274.623C720.716,275.064 719.96,275.274 718.973,275.274C717.944,275.274 717.209,275.064 716.747,274.644C716.264,274.224 716.033,273.489 716.033,272.439L716.033,263.409L712.841,263.409L712.841,272.439C712.841,273.51 713.03,274.434 713.387,275.232C713.744,276.03 714.206,276.639 714.815,277.08C715.424,277.521 716.075,277.857 716.768,278.046C717.461,278.256 718.196,278.361 718.973,278.361C719.771,278.361 720.527,278.256 721.22,278.046Z" style="fill:white;fill-rule:nonzero;"/>
        </g>
        <g transform="matrix(1.33333,0,0,1.33333,0,0)">
            <path d="M739.069,266.475L739.069,263.409L727.435,263.409L727.435,266.475L731.656,266.475L731.656,278.109L734.848,278.109L734.848,266.475L739.069,266.475Z" style="fill:white;fill-rule:nonzero;"/>
        </g>
        <g transform="matrix(1.33333,0,0,1.33333,0,0)">
            <rect x="741.59" y="263.409" width="3.192" height="14.7" style="fill:white;fill-rule:nonzero;"/>
        </g>
        <g transform="matrix(1.33333,0,0,1.33333,0,0)">
            <path d="M757.256,277.689C758.117,277.248 758.81,276.66 759.293,275.904C759.776,275.169 760.154,274.35 760.406,273.489C760.637,272.628 760.763,271.704 760.763,270.759C760.763,269.814 760.637,268.89 760.406,268.029C760.154,267.168 759.776,266.349 759.293,265.593C758.81,264.858 758.117,264.249 757.256,263.808C756.395,263.367 755.387,263.157 754.253,263.157C753.329,263.157 752.489,263.304 751.754,263.598C750.998,263.892 750.368,264.291 749.885,264.774C749.402,265.278 748.982,265.866 748.667,266.517C748.331,267.168 748.1,267.861 747.953,268.554C747.806,269.268 747.722,270.003 747.722,270.759C747.722,271.515 747.806,272.25 747.953,272.943C748.1,273.657 748.331,274.35 748.667,275.001C748.982,275.652 749.402,276.24 749.885,276.723C750.368,277.227 750.998,277.626 751.754,277.92C752.489,278.214 753.329,278.361 754.253,278.361C755.387,278.361 756.395,278.13 757.256,277.689ZM752.741,274.854C752.3,274.581 751.964,274.224 751.733,273.762C751.502,273.321 751.313,272.838 751.208,272.334C751.103,271.83 751.04,271.305 751.04,270.759C751.04,270.024 751.124,269.331 751.313,268.68C751.502,268.029 751.838,267.462 752.363,266.958C752.867,266.475 753.497,266.223 754.253,266.223C755.009,266.223 755.639,266.454 756.143,266.937C756.647,267.42 756.983,267.987 757.172,268.638C757.361,269.289 757.445,270.003 757.445,270.759C757.445,271.473 757.34,272.145 757.151,272.796C756.962,273.447 756.605,274.035 756.101,274.518C755.597,275.022 754.988,275.274 754.253,275.274C753.686,275.274 753.182,275.127 752.741,274.854Z" style="fill:white;fill-rule:nonzero;"/>
        </g>
        <g transform="matrix(1.33333,0,0,1.33333,0,0)">
            <path d="M775.651,263.409L772.459,263.409L772.459,271.095C772.459,271.536 772.48,271.914 772.522,272.208C772.375,271.851 772.186,271.494 771.913,271.116L766.516,263.409L763.597,263.409L763.597,278.109L766.747,278.109L766.747,270.318C766.747,269.814 766.726,269.436 766.684,269.205C766.957,269.772 767.167,270.129 767.314,270.318L772.858,278.109L775.651,278.109L775.651,263.409Z" style="fill:white;fill-rule:nonzero;"/>
        </g>
        <g transform="matrix(1.33333,0,0,1.33333,0,0)">
            <path d="M787.999,277.143C789.028,276.324 789.553,275.232 789.553,273.846C789.553,273.321 789.49,272.859 789.364,272.418C789.217,271.977 789.007,271.599 788.713,271.284C788.419,270.969 788.146,270.675 787.873,270.444C787.6,270.213 787.222,270.003 786.739,269.793C786.256,269.604 785.899,269.457 785.626,269.352C785.353,269.247 784.954,269.121 784.45,268.953C783.967,268.785 783.652,268.659 783.463,268.596C783.274,268.533 783.022,268.428 782.728,268.281C782.434,268.134 782.224,268.008 782.119,267.861C782.014,267.714 781.951,267.567 781.951,267.378C781.951,266.58 782.539,266.181 783.736,266.181C784.891,266.181 785.689,266.706 786.151,267.756L789.007,266.832C788.713,265.761 788.125,264.879 787.222,264.186C786.319,263.493 785.227,263.157 783.904,263.157C782.329,263.157 781.069,263.556 780.145,264.354C779.221,265.152 778.759,266.139 778.759,267.315C778.759,267.735 778.822,268.134 778.927,268.491C779.032,268.869 779.179,269.184 779.326,269.436C779.473,269.709 779.683,269.961 779.977,270.192C780.271,270.423 780.523,270.612 780.733,270.759C780.943,270.906 781.258,271.053 781.657,271.221C782.056,271.389 782.371,271.515 782.602,271.578C782.812,271.662 783.127,271.767 783.568,271.914C784.219,272.124 784.723,272.292 785.038,272.397C785.353,272.523 785.647,272.712 785.941,272.964C786.214,273.216 786.361,273.51 786.361,273.825C786.361,274.308 786.172,274.686 785.773,274.938C785.374,275.211 784.849,275.337 784.156,275.337C783.505,275.337 782.896,275.127 782.35,274.686C781.804,274.266 781.363,273.699 781.027,272.985L778.171,274.056C778.612,275.4 779.368,276.45 780.397,277.206C781.426,277.983 782.644,278.361 784.072,278.361C785.647,278.361 786.97,277.962 787.999,277.143Z" style="fill:white;fill-rule:nonzero;"/>
        </g>
        <g transform="matrix(1.33333,0,0,1.33333,0,0)">
            <rect x="798.036" y="263.409" width="3.192" height="14.7" style="fill:white;fill-rule:nonzero;"/>
        </g>
        <g transform="matrix(1.33333,0,0,1.33333,0,0)">
            <path d="M816.747,263.409L813.555,263.409L813.555,271.095C813.555,271.536 813.576,271.914 813.618,272.208C813.471,271.851 813.282,271.494 813.009,271.116L807.612,263.409L804.693,263.409L804.693,278.109L807.843,278.109L807.843,270.318C807.843,269.814 807.822,269.436 807.78,269.205C808.053,269.772 808.263,270.129 808.41,270.318L813.954,278.109L816.747,278.109L816.747,263.409Z" style="fill:white;fill-rule:nonzero;"/>
        </g>
        <g transform="matrix(1.33333,0,0,1.33333,0,0)">
            <path d="M831.195,274.455L828.276,273.363C827.52,274.623 826.68,275.253 825.777,275.253C825.147,275.253 824.601,275.022 824.16,274.539C823.698,274.077 823.383,273.51 823.194,272.859C823.005,272.208 822.9,271.494 822.9,270.759C822.9,270.213 822.942,269.688 823.047,269.184C823.152,268.701 823.299,268.218 823.509,267.756C823.719,267.315 824.013,266.937 824.412,266.664C824.811,266.391 825.252,266.265 825.777,266.265C826.323,266.265 826.785,266.412 827.163,266.685C827.52,266.958 827.919,267.399 828.318,268.008L831.174,266.727C830.775,265.74 830.124,264.921 829.179,264.228C828.234,263.535 827.1,263.199 825.777,263.199C824.685,263.199 823.719,263.43 822.9,263.892C822.06,264.375 821.409,264.984 820.947,265.74C820.485,266.517 820.149,267.315 819.918,268.155C819.687,269.016 819.582,269.877 819.582,270.759C819.582,271.725 819.687,272.628 819.918,273.489C820.128,274.35 820.464,275.148 820.926,275.883C821.388,276.618 822.039,277.206 822.879,277.647C823.698,278.088 824.664,278.319 825.777,278.319C828.192,278.319 829.998,277.038 831.195,274.455Z" style="fill:white;fill-rule:nonzero;"/>
        </g>
        <g transform="matrix(1.33333,0,0,1.33333,0,0)">
            <path d="M836.635,276.534C836.635,276.009 836.446,275.568 836.089,275.211C835.711,274.854 835.249,274.665 834.724,274.665C834.199,274.665 833.758,274.854 833.401,275.211C833.044,275.568 832.855,276.009 832.855,276.534C832.855,277.059 833.044,277.479 833.401,277.836C833.758,278.193 834.199,278.361 834.724,278.361C835.249,278.361 835.711,278.193 836.089,277.836C836.446,277.479 836.635,277.059 836.635,276.534Z" style="fill:white;fill-rule:nonzero;"/>
        </g>
    </g>
</svg>
