<svg xmlns="http://www.w3.org/2000/svg" width="226" height="39" viewBox="0 0 226 39" fill="none"><path d="M64.3966 11.3641V27.3437C64.3966 28.2077 64.5547 28.76 64.8702 29.0022C65.1857 29.2443 65.9542 29.4391 67.1757 29.5866V30.4391H58.6489V29.5866C59.8697 29.4391 60.6382 29.2443 60.9544 29.0022C61.2707 28.76 61.428 28.2077 61.428 27.3437V11.3641C61.428 10.5009 61.2699 9.94862 60.9544 9.70645C60.6389 9.46506 59.8697 9.2695 58.6489 9.12206V8.26953H67.1757V9.12206C65.9542 9.2695 65.1865 9.46429 64.8702 9.70645C64.554 9.94862 64.3966 10.5017 64.3966 11.3641Z" fill="white"></path><path d="M81.2286 28.0386V18.8487C81.2286 16.6379 80.2912 15.5326 78.4181 15.5326C76.9858 15.5326 75.5336 16.175 74.06 17.4591V28.0386C74.06 28.6497 74.2074 29.0546 74.5023 29.2547C74.7972 29.4549 75.3755 29.5756 76.2394 29.6176V30.4388H69.0396V29.6176C69.9028 29.5756 70.4811 29.4549 70.7767 29.2547C71.0716 29.0546 71.219 28.6497 71.219 28.0386V16.7327L69.1664 15.6273V15.2797L73.8087 13.7007H74.1876L74.0608 16.7006C75.8712 14.7006 77.7871 13.7007 79.8084 13.7007C82.6502 13.7007 84.0719 15.3958 84.0719 18.7853V28.0386C84.0719 28.6497 84.2185 29.0546 84.5142 29.2547C84.8083 29.4549 85.3873 29.5756 86.2505 29.6176V30.4388H79.0506V29.6176C79.9139 29.5756 80.4922 29.4549 80.7878 29.2547C81.0827 29.0546 81.2301 28.6497 81.2301 28.0386H81.2286Z" fill="white"></path><path d="M99.1027 8.74291L97.0501 7.63753V7.28995L101.566 5.71094H101.945V27.3748C101.945 27.9431 102.019 28.3068 102.166 28.4641C102.313 28.6223 102.734 28.7437 103.43 28.8277L104.251 28.9225V29.5855L99.4511 30.7543H98.9775L99.1035 27.8492C97.6085 29.7865 95.9241 30.7543 94.051 30.7543C92.1137 30.7543 90.5713 30.0332 89.4247 28.5909C88.2773 27.1494 87.7036 25.2908 87.7036 23.0174C87.7036 20.1963 88.4301 17.9381 89.8831 16.243C91.336 14.5487 93.1778 13.7007 95.4092 13.7007C96.9668 13.7007 98.199 14.1224 99.1043 14.9642V8.74291H99.1027ZM95.4077 14.5853C93.8921 14.5853 92.6759 15.2438 91.76 16.5593C90.8441 17.8755 90.3865 19.6065 90.3865 21.7539C90.3865 23.7752 90.8288 25.4329 91.7126 26.7277C92.5965 28.0226 93.8493 28.6696 95.4703 28.6696C96.9645 28.6696 98.1754 28.154 99.102 27.1219V19.2269C99.102 17.8167 98.7597 16.6899 98.076 15.8481C97.3916 15.0062 96.5024 14.5846 95.4077 14.5846V14.5853Z" fill="white"></path><path d="M119.693 17.0801V27.3754C119.693 27.9437 119.766 28.3073 119.913 28.4647C120.061 28.6228 120.482 28.7443 121.177 28.8283L121.998 28.9231V29.5861L117.23 30.7549H116.756L116.882 27.7864C115.935 28.7336 115.045 29.4654 114.214 29.9811C113.382 30.4967 112.471 30.7549 111.482 30.7549C108.597 30.7549 107.156 29.1125 107.156 25.8284V17.0809C107.156 16.4919 107.051 16.0916 106.84 15.8808C106.629 15.6707 106.155 15.5232 105.419 15.4384L104.913 15.375V14.6486L109.776 13.7639H110.124L109.966 17.2061V25.2593C109.966 27.6809 110.902 28.891 112.776 28.891C113.997 28.891 115.366 28.2913 116.881 27.0912V17.0801C116.881 16.4911 116.776 16.0908 116.566 15.88C116.355 15.6699 115.881 15.5225 115.145 15.4377L114.671 15.3743V14.6478L119.472 13.7632H119.819L119.693 17.0793L119.693 17.0801Z" fill="white"></path><path d="M129.355 30.7546C127.144 30.7546 125.376 30.2389 124.05 29.2069L123.86 24.8488H124.713C125.639 28.1962 127.228 29.87 129.481 29.87C130.47 29.87 131.27 29.6171 131.881 29.1122C132.492 28.6072 132.797 27.8807 132.797 26.9327C132.797 26.0489 132.508 25.3537 131.929 24.8488C131.35 24.343 130.312 23.7961 128.818 23.2063C127.134 22.554 125.929 21.8641 125.203 21.1377C124.476 20.4112 124.113 19.4166 124.113 18.1531C124.113 16.8063 124.587 15.7269 125.534 14.9163C126.481 14.1058 127.745 13.7002 129.324 13.7002C131.134 13.7002 132.735 14.1425 134.124 15.0264V18.8474H133.366C132.629 16.0049 131.228 14.584 129.166 14.584C128.281 14.584 127.591 14.8262 127.097 15.3105C126.602 15.7948 126.355 16.4266 126.355 17.205C126.355 18.0056 126.634 18.6633 127.192 19.179C127.749 19.6954 128.744 20.2164 130.176 20.742C131.839 21.3737 133.076 22.0681 133.887 22.8267C134.697 23.5845 135.103 24.6058 135.103 25.89C135.103 27.385 134.582 28.569 133.54 29.4429C132.498 30.3169 131.103 30.7538 129.356 30.7538L129.355 30.7546Z" fill="white"></path><path d="M141.545 10.1013V14.0172H146.061V15.2173H141.545V25.6699C141.545 26.828 141.755 27.6653 142.176 28.1809C142.597 28.6973 143.26 28.9548 144.166 28.9548C145.007 28.9548 145.839 28.65 146.661 28.0388L146.945 28.4177C145.871 29.9761 144.481 30.7545 142.776 30.7545C141.555 30.7545 140.581 30.3863 139.855 29.6492C139.128 28.9127 138.766 27.7439 138.766 26.1435V15.2165H136.618V14.7742C138.344 13.8483 139.776 12.29 140.913 10.1006L141.545 10.1013Z" fill="white"></path><path d="M152.945 18.8803V28.0381C152.945 28.6278 153.14 29.0281 153.529 29.2382C153.919 29.449 154.661 29.5751 155.755 29.6171V30.4383H147.924V29.6171C148.787 29.5751 149.365 29.4544 149.661 29.2543C149.956 29.0541 150.103 28.6492 150.103 28.0381V16.7322L148.051 15.6268V15.2792L152.693 13.7002H153.072L152.945 18.1844C153.913 16.3953 154.661 15.1998 155.187 14.6001C155.713 14.0004 156.387 13.7002 157.208 13.7002C157.755 13.7002 158.156 13.869 158.409 14.2059V16.5748H157.966C156.85 16.5748 155.94 16.7123 155.234 16.985C154.529 17.2585 153.766 17.891 152.945 18.8803Z" fill="white"></path><path d="M168.766 27.4704L172.714 16.7328C172.84 16.3959 172.904 16.1117 172.904 15.8803C172.904 15.5228 172.756 15.286 172.461 15.1698C172.166 15.0545 171.577 14.9437 170.693 14.8383V14.0171H175.777V14.8383C175.23 14.9643 174.856 15.1064 174.656 15.2646C174.456 15.4227 174.293 15.6702 174.166 16.0063L167.471 33.723C166.987 34.9651 166.471 35.875 165.924 36.4548C165.376 37.0338 164.65 37.3233 163.744 37.3233C163.239 37.3233 162.766 37.1813 162.323 36.8971C161.881 36.6129 161.597 36.2287 161.471 35.7443V34.8284C162.123 35.0179 162.734 35.1126 163.303 35.1126C164.208 35.1126 164.939 34.9285 165.497 34.5603C166.055 34.1913 166.513 33.5022 166.871 32.4916L167.471 30.8813L161.123 16.0071C160.976 15.6496 160.807 15.3967 160.618 15.2493C160.428 15.1018 160.059 14.9651 159.512 14.8391V14.0179H166.491V14.8391C165.607 14.9445 165.018 15.0552 164.723 15.1706C164.428 15.2867 164.281 15.5235 164.281 15.881C164.281 16.0919 164.344 16.3868 164.47 16.7657L168.765 27.4711L168.766 27.4704Z" fill="white"></path><path d="M197.394 30.4391V14.144H201.657V18.218L200.962 17.4289C201.383 16.5656 201.946 15.8292 202.652 15.2181C203.357 14.6077 204.152 14.1975 205.036 13.9867C205.921 13.7766 206.825 13.8079 207.752 14.0814V18.124C206.636 17.7245 205.609 17.6084 204.672 17.7764C203.735 17.9453 202.999 18.3448 202.462 18.9765C201.925 19.6083 201.656 20.3875 201.656 21.3134V30.4398H197.393L197.394 30.4391Z" fill="#E8E670"></path><path d="M208.566 22.2908C208.566 20.7118 208.95 19.2802 209.719 17.996C210.487 16.7119 211.534 15.6959 212.861 14.9488C214.187 14.2017 215.66 13.8281 217.281 13.8281C218.902 13.8281 220.376 14.2017 221.703 14.9488C223.029 15.6967 224.076 16.7127 224.845 17.996C225.613 19.2802 225.998 20.7118 225.998 22.2908C225.998 23.8698 225.613 25.3067 224.845 26.6015C224.076 27.8964 223.029 28.9124 221.703 29.6488C220.377 30.386 218.902 30.7542 217.281 30.7542C215.66 30.7542 214.187 30.386 212.861 29.6488C211.534 28.9124 210.486 27.8964 209.719 26.6015C208.95 25.3067 208.566 23.8698 208.566 22.2908ZM212.987 22.2908C212.987 23.1548 213.177 23.9332 213.556 24.6276C213.935 25.3227 214.45 25.8644 215.103 26.254C215.755 26.6435 216.482 26.8383 217.282 26.8383C218.083 26.8383 218.808 26.6435 219.462 26.254C220.114 25.8644 220.63 25.322 221.009 24.6276C221.388 23.9332 221.578 23.154 221.578 22.2908C221.578 21.4275 221.388 20.6484 221.009 19.954C220.63 19.2596 220.114 18.7172 219.462 18.3276C218.808 17.938 218.083 17.7432 217.282 17.7432C216.482 17.7432 215.756 17.938 215.103 18.3276C214.45 18.7172 213.935 19.2588 213.556 19.954C213.177 20.6491 212.987 21.4275 212.987 22.2908Z" fill="#E8E670"></path><path d="M177.956 30.4387V8.33252H187.304C188.904 8.33252 190.32 8.65413 191.552 9.29582C192.783 9.93827 193.736 10.8221 194.41 11.9481C195.083 13.0749 195.42 14.3323 195.42 15.7219C195.42 17.1328 195.089 18.3902 194.426 19.4956C193.762 20.601 192.815 21.4642 191.583 22.0853C190.352 22.7063 188.925 23.0172 187.304 23.0172H182.472V30.4387H177.956H177.956ZM187.304 19.0067C187.977 19.0067 188.577 18.8646 189.103 18.5804C189.63 18.2963 190.035 17.9013 190.319 17.3964C190.603 16.8907 190.745 16.3223 190.745 15.6913C190.745 15.0389 190.603 14.4599 190.319 13.9542C190.035 13.4485 189.629 13.0543 189.103 12.7701C188.577 12.4859 187.977 12.3438 187.304 12.3438H182.472V19.0067H187.304Z" fill="#E8E670"></path><path d="M44.4054 3.19462C42.7523 1.77145 40.6088 0.834892 37.9969 0.362793L36.4882 2.26188C37.971 2.69655 39.1902 3.42532 40.1275 4.4673C41.7332 6.2541 42.5369 8.5382 42.5369 11.3173C42.5369 17.5631 39.3231 20.6852 32.8986 20.6852H29.3242V11.2791L24.2343 17.6861V32.7062C24.2343 34.1866 23.9631 35.1346 23.4222 35.5487C22.8806 35.9642 21.5621 36.2981 19.4697 36.5502V38.0123H36.039V36.4425C33.3317 36.2255 31.535 35.8382 30.6511 35.2783C29.7665 34.7191 29.3242 33.6267 29.3242 32.0026V22.472H33.981C38.5645 22.472 42.0671 21.4346 44.4856 19.3583C46.9042 17.2827 48.1142 14.5303 48.1142 11.1004C48.1142 7.95992 46.8767 5.32518 44.4054 3.19462Z" fill="white"></path><path d="M4.7653 5.30691V28.6842L9.85526 22.2773V5.30691C9.85526 3.82721 10.1264 2.87919 10.6673 2.46439C11.2089 2.04958 12.5267 1.71575 14.6206 1.4629V0H0V1.46213C2.09312 1.71499 3.41088 2.04958 3.95249 2.46362C4.49334 2.87919 4.76453 3.82645 4.76453 5.30615L4.7653 5.30691Z" fill="white"></path><path d="M4.27276 38.0131L34.2648 0.362793H30.9975L1.00244 38.0131H4.27276Z" fill="#E8E670"></path></svg>